<?xml version="1.0" encoding="utf-8"?>
<!-- Generator: Adobe Illustrator 18.1.1, SVG Export Plug-In . SVG Version: 6.00 Build 0)  -->
<svg version="1.1" id="Layer_2" xmlns="http://www.w3.org/2000/svg" xmlns:xlink="http://www.w3.org/1999/xlink" x="0px" y="0px"
	 viewBox="0 0 600 300" enable-background="new 0 0 600 300" xml:space="preserve">
<g>
	<g>
		<g>
			<defs>
				<rect id="SVGID_1_" x="0" y="90.8" width="118.5" height="118.5"/>
			</defs>
			<clipPath id="SVGID_2_">
				<use xlink:href="#SVGID_1_"  overflow="visible"/>
			</clipPath>
			<g clip-path="url(#SVGID_2_)">
				<defs>
					<rect id="SVGID_3_" x="0" y="90.8" width="118.5" height="118.5"/>
				</defs>
				<clipPath id="SVGID_4_">
					<use xlink:href="#SVGID_3_"  overflow="visible"/>
				</clipPath>
			</g>
			<g clip-path="url(#SVGID_2_)">
				<defs>
					<rect id="SVGID_5_" x="0" y="90.8" width="118.5" height="118.5"/>
				</defs>
				<clipPath id="SVGID_6_">
					<use xlink:href="#SVGID_5_"  overflow="visible"/>
				</clipPath>
				<path clip-path="url(#SVGID_6_)" fill="#FFFFFF" d="M76.4,108.3c-3.2-2.4-7.7-0.3-8,3.7v0c0,1.7,0.7,3.4,2.1,4.3
					c5.6,3.9,9.1,10.3,8.7,18.3c-0.5,11.3-9.8,20.3-22.2,20.3c-11.2,0-20.7-10-20.7-20.8c0-7.3,3.5-14,8.5-17.8c1.3-1,2.1-2.6,2-4.3
					l0-0.1c-0.2-3.9-4.7-6-7.9-3.7c-10,7.3-12.6,17.5-12.8,23.9c-0.6,16.5,11.2,30,26.1,32.5c0,0.2-0.1,0.4-0.1,0.6v5.8h-6.1
					c-2.7,0-5,2.3-5,5v0.8c0,2.7,2.2,5,5,5h6.1v10.4c0,2.7,2.3,4.9,5,4.9h0.8c2.7,0,5-2.2,5-4.9v-10.4h6.1c2.7,0,5-2.3,5-5V176
					c0-2.7-2.2-5-5-5h-6.1v-5.8c0-0.2,0-0.4-0.1-0.7c12.6-2.4,25.6-12.8,26.3-30.3C89.9,123.5,84.2,114.1,76.4,108.3"/>
				<path clip-path="url(#SVGID_6_)" fill="#FFFFFF" d="M63.1,108.9c0-2.7-2.2-5-5-5h-0.7c-2.7,0-5,2.2-5,5V141c0,2.7,2.2,5,5,5h0.7
					c2.7,0,5-2.2,5-5V108.9z"/>
			</g>
			<g clip-path="url(#SVGID_2_)">
				<defs>
					<rect id="SVGID_7_" x="0" y="90.8" width="118.5" height="118.5"/>
				</defs>
				<clipPath id="SVGID_8_">
					<use xlink:href="#SVGID_7_"  overflow="visible"/>
				</clipPath>
				<g opacity="0.47" clip-path="url(#SVGID_8_)">
					<g>
						<defs>
							<rect id="SVGID_9_" x="30.3" y="104.2" width="63.1" height="63.1"/>
						</defs>
						<clipPath id="SVGID_10_">
							<use xlink:href="#SVGID_9_"  overflow="visible"/>
						</clipPath>
					</g>
				</g>
				<g opacity="0.42" clip-path="url(#SVGID_8_)">
					<g>
						<defs>
							<rect id="SVGID_11_" x="40.4" y="114.3" width="42.8" height="42.8"/>
						</defs>
						<clipPath id="SVGID_12_">
							<use xlink:href="#SVGID_11_"  overflow="visible"/>
						</clipPath>
					</g>
				</g>
			</g>
		</g>
	</g>
	<g>
		<path fill="#FFFFFF" d="M181.5,194.6h-8.2l-59.5-74v74h-9.5v-91.1h7.9l59.8,74.8v-74.8h9.5V194.6z"/>
		<path fill="#FFFFFF" d="M281.5,155.8c0,24-15.5,40.7-38.9,40.7c-23.2,0-38.7-16.8-38.7-40.7v-52.4h9.5v52.4
			c0,18.2,11.7,31.9,29.2,31.9c17.6,0,29.3-13.7,29.3-31.9v-52.4h9.5V155.8z"/>
		<path fill="#FFFFFF" d="M405.5,195.1h-21.8l-18.4-55.6l-18.4,55.6h-21.8l-29.5-91.7h24l17,56.7l19.3-56.4v-0.3h18.8l19.3,56.5
			l17-56.5h24L405.5,195.1z"/>
		<path fill="#FFFFFF" d="M471,194.6h-22.6v-91.1H471V194.6z"/>
		<path fill="#FFFFFF" d="M537.8,123.7v70.9h-22.6v-70.9h-29.1v-20.2h80.7v20.2H537.8z"/>
	</g>
</g>
</svg>
